<?xml version="1.0" encoding="UTF-8"?>
<svg width="106px" height="88px" viewBox="0 0 106 88" version="1.1" xmlns="http://www.w3.org/2000/svg" xmlns:xlink="http://www.w3.org/1999/xlink">
    <!-- Generator: Sketch 45.2 (43514) - http://www.bohemiancoding.com/sketch -->
    <title>Cash Out image</title>
    <desc>Created with Sketch.</desc>
    <defs>
        <polygon id="path-1" points="89.9775744 0.505608354 0 0.505608354 0 87.5431814 89.9775744 87.5431814"></polygon>
        <polygon id="path-3" points="0 0.351274151 0 72.351333 100.68902 72.351333 100.68902 0.351274151"></polygon>
    </defs>
    <g id="Page-1" stroke="none" stroke-width="1" fill="none" fill-rule="evenodd">
        <g id="Landing-page" transform="translate(-904.000000, -576.000000)">
            <g id="Cash-Out-image" transform="translate(904.000000, 576.000000)">
                <g id="Group-3" transform="translate(0.000000, 0.382540)">
                    <mask id="mask-2" fill="white">
                        <use xlink:href="#path-1"></use>
                    </mask>
                    <g id="Clip-2"></g>
                    <path d="M89.797265,2.60254307 C89.797265,1.3519217 88.7261204,0.290680138 87.2997129,0.542591014 L2.50076559,15.5053824 C1.24931165,15.726921 -0.000357048199,17.0186343 -0.000357048199,18.4479158 L-0.000357048199,85.4472758 C-0.000357048199,86.6961106 1.07078755,87.7591388 2.50076559,87.5054413 L87.4764517,72.510491 C88.7261204,72.2889524 89.9775744,70.9990258 89.9775744,69.5679576 L89.797265,2.60254307 Z" id="Fill-1" fill="#00E3F2" mask="url(#mask-2)"></path>
                </g>
                <g id="Group-6" transform="translate(0.000000, 15.574345)">
                    <mask id="mask-4" fill="white">
                        <use xlink:href="#path-3"></use>
                    </mask>
                    <g id="Clip-5"></g>
                    <path d="M100.508711,2.85251689 C100.508711,1.60189552 99.4375664,0.351274151 98.0111589,0.351274151 L2.50076559,0.351274151 C1.24931165,0.351274151 -0.000357048199,1.42323532 -0.000357048199,2.85251689 L-0.000357048199,69.8500903 C-0.000357048199,71.1007117 1.07078755,72.351333 2.50076559,72.351333 L98.1878977,72.351333 C99.4375664,72.351333 100.68902,71.2793718 100.68902,69.8500903 L100.508711,2.85251689 Z" id="Fill-4" fill="#0110B8" mask="url(#mask-4)"></path>
                </g>
                <path d="M83.5489216,63.0919111 C77.3469943,63.0919111 72.3019033,58.0429739 72.3019033,51.8363187 C72.3019033,45.6314501 77.3469943,40.5807264 83.5489216,40.5807264 L101.936904,40.5807264 C103.807836,40.5807264 105.328862,42.1046979 105.328862,43.9752701 L105.328862,59.6991539 C105.328862,61.5679396 103.807836,63.0919111 101.936904,63.0919111 L83.5489216,63.0919111 Z" id="Fill-7" fill="#00E3F2"></path>
                <path d="M88.9046445,51.836676 C88.9046445,49.3354333 86.9408794,47.5488314 84.6218514,47.5488314 C82.2992529,47.5488314 80.3354878,49.5140935 80.3354878,51.836676 C80.3354878,54.3379188 82.2992529,56.1245207 84.6218514,56.1245207 C86.9408794,56.1245207 88.9046445,54.3379188 88.9046445,51.836676" id="Fill-9" fill="#0110B8"></path>
            </g>
        </g>
    </g>
</svg>