<?xml version="1.0" encoding="UTF-8"?>
<svg width="160px" height="94px" viewBox="0 0 160 94" version="1.1" xmlns="http://www.w3.org/2000/svg" xmlns:xlink="http://www.w3.org/1999/xlink">
    <!-- Generator: Sketch 45.2 (43514) - http://www.bohemiancoding.com/sketch -->
    <title>cashmoneymillionaire</title>
    <desc>Created with Sketch.</desc>
    <defs></defs>
    <g id="Page-1" stroke="none" stroke-width="1" fill="none" fill-rule="evenodd">
        <g id="Graphs-page" transform="translate(-592.000000, -307.000000)">
            <g id="cashmoneymillionaire" transform="translate(592.000000, 307.000000)">
                <rect id="Combined-Shape" fill="#001CB0" x="0" y="0" width="159.839208" height="93.0935904" rx="4.8"></rect>
                <ellipse id="Oval" fill="#00DFED" cx="79.563857" cy="46.1904213" rx="26.5938871" ry="26.6407673"></ellipse>
                <path d="M90.9731645,51.4705734 C90.9731645,53.7833788 90.138257,55.6415956 88.4684168,57.0452794 C86.7985766,58.4489632 84.4608354,59.288979 81.4551231,59.565352 L81.4551231,64.0382081 L78.4712062,64.0382081 L78.4712062,59.6526272 C74.9282409,59.5798975 71.8209327,58.9544312 69.1491884,57.7762095 L69.1491884,52.0160436 C70.4124588,52.6415193 71.9334426,53.194257 73.7121854,53.6742732 C75.4909282,54.1542894 77.0772526,54.4379311 78.4712062,54.5252068 L78.4712062,47.7613756 L77.0119183,47.1940865 C74.1368892,46.0595027 72.1004407,44.8267523 70.9025119,43.4957982 C69.704583,42.1648441 69.1056276,40.5175404 69.1056276,38.5538377 C69.1056276,36.4446755 69.9296451,34.7100974 71.5777047,33.3500515 C73.2257644,31.9900055 75.5235752,31.1645354 78.4712062,30.8736165 L78.4712062,27.5353385 L81.4551231,27.5353385 L81.4551231,30.7863412 C84.7802831,30.9318007 87.7859503,31.6009042 90.472215,32.7936718 L88.424856,37.8992734 C86.1596814,36.9683328 83.8364604,36.4010494 81.4551231,36.1974062 L81.4551231,42.6339552 C84.2865912,43.7249012 86.3012595,44.6703735 87.4991883,45.4704005 C88.6971171,46.2704276 89.5755851,47.1504441 90.1346186,48.1104766 C90.693652,49.070509 90.9731645,50.1905301 90.9731645,51.4705734 Z M84.4172595,51.7978555 C84.4172595,51.1869258 84.1704173,50.6705524 83.6767254,50.24872 C83.1830335,49.8268875 82.4425068,49.3905157 81.4551231,48.9395914 L81.4551231,54.3724751 C83.4298906,54.0379184 84.4172595,53.1797204 84.4172595,51.7978555 Z M75.6615326,38.5538377 C75.6615326,39.1938593 75.8829646,39.721142 76.3258353,40.1357014 C76.7687059,40.5502609 77.4838224,40.9757234 78.4712062,41.4121018 L78.4712062,36.2846814 C76.5980811,36.5610544 75.6615326,37.3174323 75.6615326,38.5538377 Z" id="$" fill="#001CB0"></path>
            </g>
        </g>
    </g>
</svg>