<?xml version="1.0" encoding="UTF-8"?>
<svg width="117px" height="119px" viewBox="0 0 117 119" version="1.1" xmlns="http://www.w3.org/2000/svg" xmlns:xlink="http://www.w3.org/1999/xlink">
    <!-- Generator: Sketch 45.2 (43514) - http://www.bohemiancoding.com/sketch -->
    <title>Earn image</title>
    <desc>Created with Sketch.</desc>
    <defs></defs>
    <g id="Page-1" stroke="none" stroke-width="1" fill="none" fill-rule="evenodd">
        <g id="Landing-page" transform="translate(-649.000000, -548.000000)">
            <g id="Earn-image" transform="translate(649.000000, 548.000000)">
                <path d="M6,82.3562769 L26.8414601,82.3562769 L26.8414601,82.3562769 C30.1551686,82.3562769 32.8414601,85.0425684 32.8414601,88.3562769 L32.8414601,118.229256 L0,118.229256 L0,88.3562769 L8.8817842e-16,88.3562769 C4.82366169e-16,85.0425684 2.6862915,82.3562769 6,82.3562769 Z" id="Rectangle-7" fill="#00DFED"></path>
                <path d="M47.9360183,64.6724138 L68.7774784,64.6724138 L68.7774784,64.6724138 C72.0911869,64.6724138 74.7774784,67.3587053 74.7774784,70.6724138 L74.7774784,118.229256 L41.9360183,118.229256 L41.9360183,70.6724138 L41.9360183,70.6724138 C41.9360183,67.3587053 44.6223098,64.6724138 47.9360183,64.6724138 Z" id="Rectangle-7-Copy" fill="#00DFED"></path>
                <path d="M89.8720366,41.4307651 L110.713497,41.4307651 L110.713497,41.4307651 C114.027205,41.4307651 116.713497,44.1170566 116.713497,47.4307651 L116.713497,118.229256 L83.8720366,118.229256 L83.8720366,47.4307651 L83.8720366,47.4307651 C83.8720366,44.1170566 86.5583281,41.4307651 89.8720366,41.4307651 Z" id="Rectangle-7-Copy-2" fill="#00DFED"></path>
                <path d="M107.676531,5.68015158 C78.3935197,35.2515493 43.3226249,54.7184381 2.40971215,64.1113086 C0.913886773,64.4547233 -0.0203266971,65.9457219 0.323087963,67.4415473 C0.666502623,68.9373727 2.15750127,69.8715861 3.65332664,69.5281715 C45.4743518,59.9268147 81.3980843,40.0232633 111.370839,9.84775506 L111.370839,16.8667739 C111.370839,18.401514 112.614991,19.6456667 114.149731,19.6456667 C115.684471,19.6456667 116.928624,18.401514 116.928624,16.8667739 L116.928624,2.9012588 C116.928624,1.36651869 115.684471,0.122366017 114.149731,0.122366017 L100.18619,0.122366017 C98.6514497,0.122366017 97.4072971,1.36651869 97.4072971,2.9012588 C97.4072971,4.4359989 98.6514497,5.68015158 100.18619,5.68015158 L107.676531,5.68015158 Z" id="Combined-Shape" fill="#001CB0" fill-rule="nonzero"></path>
            </g>
        </g>
    </g>
</svg>