<?xml version="1.0" encoding="UTF-8"?>
<svg width="96px" height="124px" viewBox="0 0 96 124" version="1.1" xmlns="http://www.w3.org/2000/svg" xmlns:xlink="http://www.w3.org/1999/xlink">
    <!-- Generator: Sketch 45.2 (43514) - http://www.bohemiancoding.com/sketch -->
    <title>getgiffty</title>
    <desc>Created with Sketch.</desc>
    <defs></defs>
    <g id="Page-1" stroke="none" stroke-width="1" fill="none" fill-rule="evenodd">
        <g id="Cash-Out" transform="translate(-621.000000, -260.000000)">
            <g id="getgiffty" transform="translate(623.000000, 262.000000)">
                <rect id="Rectangle-3" fill="#001CB0" x="0" y="28.4886793" width="91.5373957" height="91.5373957" rx="12"></rect>
                <path d="M31.0918495,6.68091581 C26.8710144,6.68091581 23.4365758,10.1153543 23.4365758,14.3361894 C23.4365758,18.5570245 26.8710144,21.9914631 31.0918495,21.9914631 L38.7471231,21.9914631 L38.7471231,14.3361894 C38.7471231,10.1153543 35.3126846,6.68091581 31.0918495,6.68091581 M42.087581,28.6723789 L31.0918495,28.6723789 C23.1864216,28.6723789 16.75566,22.2416173 16.75566,14.3361894 C16.75566,6.43076154 23.1864216,0 31.0918495,0 C38.9972774,0 45.4280389,6.43076154 45.4280389,14.3361894 L45.4280389,25.331921 C45.4280389,27.1769815 43.9326415,28.6723789 42.087581,28.6723789" id="Fill-11" stroke="#00DFED" stroke-width="3" fill="#00DFED"></path>
                <path d="M51.5766214,14.3361894 L51.5766214,21.9914631 L59.231895,21.9914631 C63.4527301,21.9914631 66.8871687,18.5570245 66.8871687,14.3361894 C66.8871687,10.1153543 63.4527301,6.68091581 59.231895,6.68091581 C55.0110599,6.68091581 51.5766214,10.1153543 51.5766214,14.3361894 M44.8957056,25.331921 L44.8957056,14.3361894 C44.8957056,6.43076154 51.3264671,0 59.231895,0 C67.1373229,0 73.5694665,6.43076154 73.5694665,14.3361894 C73.5694665,22.2416173 67.138705,28.6723789 59.2332771,28.6723789 L48.2361635,28.6723789 C46.391103,28.6723789 44.8957056,27.1769815 44.8957056,25.331921" id="Fill-13" stroke="#00DFED" stroke-width="3" fill="#00DFED"></path>
                <path d="M49.5049181,70.0541294 L49.5049181,28.4886793 L42.0324776,28.4886793 L42.0324776,70.0541294 L0,70.0541294 L0,77.5265698 L42.0324776,77.5265698 L42.0324776,120.026075 L49.5049181,120.026075 L49.5049181,77.5265698 L91.5373957,77.5265698 L91.5373957,70.0541294 L49.5049181,70.0541294 Z" id="Combined-Shape" stroke="#00DFED" stroke-width="3" fill="#00DFED" fill-rule="nonzero"></path>
            </g>
        </g>
    </g>
</svg>