<?xml version="1.0" encoding="UTF-8"?>
<svg width="156px" height="100px" viewBox="0 0 156 100" version="1.1" xmlns="http://www.w3.org/2000/svg" xmlns:xlink="http://www.w3.org/1999/xlink">
    <!-- Generator: Sketch 45.2 (43514) - http://www.bohemiancoding.com/sketch -->
    <title>Harness image</title>
    <desc>Created with Sketch.</desc>
    <defs>
        <polygon id="path-1" points="0 118.355531 155.483014 118.355531 155.483014 48.9028348 0 48.9028348"></polygon>
    </defs>
    <g id="Page-1" stroke="none" stroke-width="1" fill="none" fill-rule="evenodd">
        <g id="Landing-page" transform="translate(-354.000000, -558.000000)">
            <g id="Harness-image" transform="translate(354.250000, 558.000000)">
                <polygon id="Fill-10" fill="#001CB0" points="60.7645312 73.8575856 94.6316345 73.8575856 91.7761654 65.3099769 63.5372875 65.3099769"></polygon>
                <polygon id="Fill-12" fill="#001CB0" points="68.9117351 48.7561519 65.5975864 58.9692942 89.6575916 58.9692942 86.2456915 48.7561519"></polygon>
                <mask id="mask-2" fill="white">
                    <use xlink:href="#path-1"></use>
                </mask>
                <g id="Clip-15"></g>
                <polygon id="Fill-16" fill="#001CB0" mask="url(#mask-2)" points="56.8698895 65.3103529 23.0103055 65.3103529 16.5455537 73.8579616 54.0952534 73.8579616"></polygon>
                <path d="M52.0345785,80.2029679 L11.7459596,80.2029679 L0.639895757,94.8882372 C-0.0838406309,95.8507126 -0.204150056,97.1365195 0.331602854,98.2174245 C0.867355765,99.2908102 1.96517927,99.9769499 3.17391303,99.9769499 L45.6168226,99.9769499 L52.0345785,80.2029679 Z" id="Fill-17" fill="#001CB0" mask="url(#mask-2)"></path>
                <path d="M62.2420813,48.75446 L52.3955068,48.75446 C52.7921519,35.1331773 63.9677696,24.1699809 77.6811643,24.1699809 C91.394559,24.1699809 102.570177,35.1331773 102.966822,48.75446 L92.9360235,48.75446 L96.3441639,58.9694822 L127.630254,58.9694822 L120.85533,50.0101897 C120.253782,49.220659 119.317625,48.75446 118.325072,48.75446 L109.311264,48.75446 C109.237951,45.7504841 108.781151,42.8404998 107.923946,40.0978209 L113.597287,37.6935122 C115.212066,37.0073725 115.965879,35.1463361 115.281619,33.5334379 C114.59736,31.9186598 112.734443,31.1723654 111.119665,31.8491059 L105.433165,34.2646936 C104.500767,32.576602 103.421742,30.9825021 102.209248,29.4955528 L109.501128,22.1679568 C110.738059,20.9272659 110.732419,18.9158427 109.489849,17.6807912 C108.245398,16.4476196 106.237734,16.4513793 105.002683,17.6920702 L97.731482,25.0027477 C96.0903862,23.6586658 94.3045432,22.4837691 92.4077899,21.4855768 L94.7293859,15.7502009 C95.387328,14.1241438 94.6034369,12.2762662 92.9811395,11.6202039 C91.3588421,10.9622617 89.505325,11.744273 88.8511425,13.3684502 L86.5239071,19.1113455 C84.6948278,18.5755926 82.8037141,18.1864668 80.8505657,17.9909639 L80.8505657,7.67819038 C80.8505657,5.92618437 79.4331703,4.50502928 77.6811643,4.50502928 C75.9291583,4.50502928 74.5080032,5.92618437 74.5080032,7.67819038 L74.5080032,17.9909639 C72.3631117,18.2033853 70.2821346,18.6301078 68.2801106,19.2542129 L65.8758019,13.5846312 C65.1934219,11.9698532 63.3286258,11.2160394 61.7194872,11.9059388 C60.1047092,12.5883188 59.3508954,14.4512351 60.0370351,16.0622535 L62.4488631,21.744994 C60.7645312,22.6736324 59.1666716,23.7526575 57.683482,24.965151 L50.3521264,17.6770315 C49.1114354,16.4438599 47.1056517,16.4513793 45.8649608,17.6958299 C44.6317891,18.9365208 44.6393085,20.9460642 45.8837591,22.1829955 L53.1906769,29.4447972 C51.846595,31.085893 50.6716983,32.8698562 49.673506,34.7647296 L43.9306108,32.4450135 C42.3045537,31.7945907 40.4566761,32.5728423 39.8006138,34.2007792 C39.1464313,35.8230766 39.9322022,37.6747139 41.5563794,38.3307762 L47.295515,40.6467326 C46.5435811,43.2315055 46.1168586,45.9478667 46.0510644,48.7563399 L37.1086904,48.7563399 C36.1180174,48.7563399 35.1818597,49.2225389 34.5784328,50.0120695 L27.8035082,58.971362 L58.9260528,58.971362 L62.2420813,48.75446 Z" id="Fill-18" fill="#001CB0" mask="url(#mask-2)"></path>
                <path d="M143.683855,80.2029679 L103.436593,80.2029679 L110.040452,99.97507 L152.261541,99.97507 C152.27658,99.9713104 152.295378,99.97507 152.308537,99.97507 C154.062423,99.97507 155.481698,98.553915 155.481698,96.801909 C155.481698,95.9052278 155.11513,95.0987786 154.517343,94.5197895 L143.683855,80.2029679 Z" id="Fill-19" fill="#001CB0" mask="url(#mask-2)"></path>
                <polygon id="Fill-20" fill="#001CB0" mask="url(#mask-2)" points="132.423081 65.3103529 98.4619858 65.3103529 101.317455 73.8579616 138.887833 73.8579616"></polygon>
                <polygon id="Path-5" fill="#001CB0" mask="url(#mask-2)" points="58.3596728 80.2670402 96.1700378 80.2670402 102.652438 99.9558923 51.8305983 99.9558923"></polygon>
                <g id="Group-8-Copy" transform="translate(37.001853, 0.385436)" fill="#FFE344">
                    <path d="M59.3742799,48.4470956 C59.7459066,48.4470956 61.9146963,48.4470956 62.120833,47.7413128 C62.2805163,47.1917279 62.4576196,46.4685897 62.6202063,45.7049559 C62.8582796,44.5710753 63.2618429,42.4161237 63.2618429,40.7239805 C63.2618429,28.7748463 53.5037405,19.0529775 41.5100717,19.0529775 C29.5134995,19.0529775 19.7553971,28.7748463 19.7553971,40.7239805 C19.7553971,42.789263 20.0486338,44.8342976 20.626397,46.8012333 C20.844147,47.5532969 21.401587,48.1607329 22.1332269,48.4470956 C22.1332269,48.4470956 59.0026533,48.4470956 59.3742799,48.4470956 Z" id="Fill-1"></path>
                    <g id="Group-6" transform="translate(0.594678, 0.000000)" fill-rule="nonzero">
                        <path d="M2.48000131,41.3880341 L12.2708574,41.3880341 C13.6302686,41.3880341 14.7322891,40.2860136 14.7322891,38.9266024 C14.7322891,37.5671912 13.6302686,36.4651707 12.2708574,36.4651707 L2.48000131,36.4651707 C1.12059012,36.4651707 0.0185696172,37.5671912 0.0185696172,38.9266024 C0.0185696172,40.2860136 1.12059012,41.3880341 2.48000131,41.3880341 Z" id="Stroke-7-Copy"></path>
                        <path d="M68.4116923,41.3880341 L78.2017242,41.3880341 C79.5611354,41.3880341 80.6631559,40.2860136 80.6631559,38.9266024 C80.6631559,37.5671912 79.5611354,36.4651707 78.2017242,36.4651707 L68.4116923,36.4651707 C67.0522811,36.4651707 65.9502606,37.5671912 65.9502606,38.9266024 C65.9502606,40.2860136 67.0522811,41.3880341 68.4116923,41.3880341 Z" id="Stroke-8-Copy"></path>
                        <path d="M42.8521553,12.3197553 L42.8521553,2.48000131 C42.8521553,1.12059012 41.7501348,0.0185696172 40.3907236,0.0185696172 C39.0313124,0.0185696172 37.9292919,1.12059012 37.9292919,2.48000131 L37.9292919,12.3197553 C37.9292919,13.6791665 39.0313124,14.781187 40.3907236,14.781187 C41.7501348,14.781187 42.8521553,13.6791665 42.8521553,12.3197553 Z" id="Stroke-9-Copy"></path>
                        <path d="M22.6850521,19.2986577 L15.7630487,12.3406702 C14.8042951,11.3769325 13.245808,11.3728921 12.2820703,12.3316457 C11.3183326,13.2903993 11.3142922,14.8488864 12.2730458,15.8126241 L19.1950492,22.7706116 C20.1538028,23.7343492 21.7122899,23.7383896 22.6760276,22.7796361 C23.6397653,21.8208825 23.6438057,20.2623953 22.6850521,19.2986577 Z" id="Stroke-10-Copy"></path>
                        <path d="M62.1249116,23.4215476 L69.0477392,16.4635601 C70.0065502,15.4998795 70.0026025,13.9413922 69.0389219,12.9825812 C68.0752413,12.0237702 66.516754,12.0277179 65.557943,12.9913985 L58.6351154,19.949386 C57.6763045,20.9130666 57.6802521,22.4715539 58.6439327,23.4303649 C59.6076133,24.3891758 61.1661007,24.3852282 62.1249116,23.4215476 Z" id="Stroke-11-Copy"></path>
                    </g>
                </g>
            </g>
        </g>
    </g>
</svg>