<?xml version="1.0" encoding="UTF-8"?>
<svg width="142px" height="117px" viewBox="0 0 142 117" version="1.1" xmlns="http://www.w3.org/2000/svg" xmlns:xlink="http://www.w3.org/1999/xlink">
    <!-- Generator: Sketch 45.2 (43514) - http://www.bohemiancoding.com/sketch -->
    <title>wallet</title>
    <desc>Created with Sketch.</desc>
    <defs>
        <polygon id="path-1" points="120.535996 0.676038136 0 0.676038136 0 117.052119 120.535996 117.052119"></polygon>
        <polygon id="path-3" points="0 0.469681168 0 96.7394228 134.885291 96.7394228 134.885291 0.469681168"></polygon>
    </defs>
    <g id="Page-1" stroke="none" stroke-width="1" fill="none" fill-rule="evenodd">
        <g id="Graphs-page" transform="translate(-982.000000, -296.000000)">
            <g id="wallet" transform="translate(982.000000, 295.000000)">
                <g id="Group-3" transform="translate(0.000000, 0.511486)">
                    <mask id="mask-2" fill="white">
                        <use xlink:href="#path-1"></use>
                    </mask>
                    <g id="Clip-2"></g>
                    <path d="M120.294449,3.47980478 C120.294449,1.80762565 118.85952,0.388662208 116.948672,0.725486862 L3.3500822,20.7319158 C1.67360617,21.0281304 -0.000478309852,22.7552526 -0.000478309852,24.6663144 L-0.000478309852,114.249728 C-0.000478309852,115.919519 1.43445125,117.340871 3.3500822,117.001657 L117.185435,96.9522296 C118.85952,96.656015 120.535996,94.9312817 120.535996,93.017831 L120.294449,3.47980478 Z" id="Fill-1" fill="#00E3F2" mask="url(#mask-2)"></path>
                </g>
                <g id="Group-6" transform="translate(0.000000, 20.824125)">
                    <mask id="mask-4" fill="white">
                        <use xlink:href="#path-3"></use>
                    </mask>
                    <g id="Clip-5"></g>
                    <path d="M134.643745,3.81403944 C134.643745,2.1418603 133.208815,0.469681168 131.297968,0.469681168 L3.3500822,0.469681168 C1.67360617,0.469681168 -0.000478309852,1.90297757 -0.000478309852,3.81403944 L-0.000478309852,93.3950645 C-0.000478309852,95.0672437 1.43445125,96.7394228 3.3500822,96.7394228 L131.534731,96.7394228 C133.208815,96.7394228 134.885291,95.3061264 134.885291,93.3950645 L134.643745,3.81403944 Z" id="Fill-4" fill="#0110B8" mask="url(#mask-4)"></path>
                </g>
                <path d="M111.924027,84.3588474 C103.615785,84.3588474 96.8572667,77.6080213 96.8572667,69.3092352 C96.8572667,61.0128378 103.615785,54.2596229 111.924027,54.2596229 L136.556984,54.2596229 C139.063328,54.2596229 141.100928,56.2972927 141.100928,58.7983949 L141.100928,79.8224643 C141.100928,82.3211777 139.063328,84.3588474 136.556984,84.3588474 L111.924027,84.3588474 Z" id="Fill-7" fill="#00E3F2"></path>
                <path d="M119.098675,69.3097129 C119.098675,65.9653546 116.467971,63.5765273 113.361348,63.5765273 C110.249943,63.5765273 107.619238,66.2042374 107.619238,69.3097129 C107.619238,72.6540712 110.249943,75.0428985 113.361348,75.0428985 C116.467971,75.0428985 119.098675,72.6540712 119.098675,69.3097129" id="Fill-9" fill="#0110B8"></path>
            </g>
        </g>
    </g>
</svg>